HIERARCHY
ROOT Hips
{
	OFFSET 0.00000 0.00000 0.00000
	CHANNELS 6 Xposition Yposition Zposition Zrotation Yrotation Xrotation 
	JOINT LHipJoint
	{
		OFFSET 0 0 0
		CHANNELS 3 Zrotation Yrotation Xrotation
		JOINT LeftUpLeg
		{
			OFFSET 1.62329 -1.80800 0.67318
			CHANNELS 3 Zrotation Yrotation Xrotation
			JOINT LeftLeg
			{
				OFFSET 2.57139 -7.06484 0.00000
				CHANNELS 3 Zrotation Yrotation Xrotation
				JOINT LeftFoot
				{
					OFFSET 2.52017 -6.92413 0.00000
					CHANNELS 3 Zrotation Yrotation Xrotation
					JOINT LeftToeBase
					{
						OFFSET 0.23295 -0.64001 2.10214
						CHANNELS 3 Zrotation Yrotation Xrotation
						End Site
						{
							OFFSET 0.00000 -0.00000 1.10139
						}
					}
				}
			}
		}
	}
	JOINT RHipJoint
	{
		OFFSET 0 0 0
		CHANNELS 3 Zrotation Yrotation Xrotation
		JOINT RightUpLeg
		{
			OFFSET -1.48061 -1.80800 0.67318
			CHANNELS 3 Zrotation Yrotation Xrotation
			JOINT RightLeg
			{
				OFFSET -2.63258 -7.23296 0.00000
				CHANNELS 3 Zrotation Yrotation Xrotation
				JOINT RightFoot
				{
					OFFSET -2.54779 -7.00000 0.00000
					CHANNELS 3 Zrotation Yrotation Xrotation
					JOINT RightToeBase
					{
						OFFSET -0.23067 -0.63376 2.12161
						CHANNELS 3 Zrotation Yrotation Xrotation
						End Site
						{
							OFFSET -0.00000 -0.00000 1.11000
						}
					}
				}
			}
		}
	}
	JOINT LowerBack
	{
		OFFSET 0 0 0
		CHANNELS 3 Zrotation Yrotation Xrotation
		JOINT Spine
		{
			OFFSET -0.02108 2.07573 -0.16981
			CHANNELS 3 Zrotation Yrotation Xrotation
			JOINT Spine1
			{
				OFFSET 0.05070 2.08439 -0.03141
				CHANNELS 3 Zrotation Yrotation Xrotation
				JOINT Neck
				{
					OFFSET 0 0 0
					CHANNELS 3 Zrotation Yrotation Xrotation
					JOINT Neck1
					{
						OFFSET -0.10731 1.60408 0.31370
						CHANNELS 3 Zrotation Yrotation Xrotation
						JOINT Head
						{
							OFFSET 0.08411 1.65679 -0.30822
							CHANNELS 3 Zrotation Yrotation Xrotation
							End Site
							{
								OFFSET 0.03911 1.69149 -0.14146
							}
						}
					}
				}
				JOINT LeftShoulder
				{
					OFFSET 0 0 0
					CHANNELS 3 Zrotation Yrotation Xrotation
					JOINT LeftArm
					{
						OFFSET 3.52315 0.73219 -0.54694
						CHANNELS 3 Zrotation Yrotation Xrotation
						JOINT LeftForeArm
						{
							OFFSET 5.32462 -0.00000 -0.00000
							CHANNELS 3 Zrotation Yrotation Xrotation
							JOINT LeftHand
							{
								OFFSET 3.48402 -0.00000 -0.00000
								CHANNELS 3 Zrotation Yrotation Xrotation
								JOINT LeftFingerBase
								{
									OFFSET 0 0 0
									CHANNELS 3 Zrotation Yrotation Xrotation
									JOINT LeftHandIndex1
									{
										OFFSET 0.57248 -0.00000 -0.00000
										CHANNELS 3 Zrotation Yrotation Xrotation
										End Site
										{
											OFFSET 0.46154 -0.00000 -0.00000
										}
									}
								}
								JOINT LThumb
								{
									OFFSET 0 0 0
									CHANNELS 3 Zrotation Yrotation Xrotation
									End Site
									{
										OFFSET 0.46859 -0.00000 0.46859
									}
								}
							}
						}
					}
				}
				JOINT RightShoulder
				{
					OFFSET 0 0 0
					CHANNELS 3 Zrotation Yrotation Xrotation
					JOINT RightArm
					{
						OFFSET -3.41766 0.93592 -0.10019
						CHANNELS 3 Zrotation Yrotation Xrotation
						JOINT RightForeArm
						{
							OFFSET -5.33589 -0.00000 -0.00000
							CHANNELS 3 Zrotation Yrotation Xrotation
							JOINT RightHand
							{
								OFFSET -3.64134 -0.00000 -0.00000
								CHANNELS 3 Zrotation Yrotation Xrotation
								JOINT RightFingerBase
								{
									OFFSET 0 0 0
									CHANNELS 3 Zrotation Yrotation Xrotation
									JOINT RightHandIndex1
									{
										OFFSET -0.73481 -0.00000 -0.00000
										CHANNELS 3 Zrotation Yrotation Xrotation
										End Site
										{
											OFFSET -0.59242 -0.00000 -0.00000
										}
									}
								}
								JOINT RThumb
								{
									OFFSET 0 0 0
									CHANNELS 3 Zrotation Yrotation Xrotation
									End Site
									{
										OFFSET -0.60147 -0.00000 0.60147
									}
								}
							}
						}
					}
				}
			}
		}
	}
}
MOTION
Frames: 9
Frame Time: .0083333
2.3382 17.4980 -0.8378 -183.9630 231.9380 -166.2720 0.0000 0.0000 0.0000 -3.9738 -11.5279 -21.2552 2.6766 10.1522 29.4709 -0.0331 -15.8767 -10.8024 1.3465 -7.3463 -20.7455 0.0000 0.0000 0.0000 -7.3730 14.1931 -32.3202 -2.8601 -10.4650 30.4961 2.0642 -26.1599 0.1388 -0.3332 -3.7100 10.2621 -5.7894 -2.6966 9.4252 3.6572 -4.0877 3.4695 7.4990 -2.1528 -0.9688 -13.2506 -1.1708 -7.2718 2.9262 -1.5274 41.4510 3.3049 -2.8007 16.2538 -0.0000 0.0000 0.0000 -81.0223 -1.7846 47.4205 29.9127 -40.8184 -11.3525 -0.0000 -0.0000 4.6157 18.3722 18.4891 6.0123 -7.1250 0.0000 -0.0000 -9.5808 49.1495 -0.9886 -0.0000 0.0000 0.0000 77.0480 -10.6302 32.2591 -47.0600 51.7387 -23.8455 0.0000 0.0000 18.8204 -36.0193 3.7482 -2.7212 7.1250 -0.0000 -0.0000 -7.0635 -25.3445 -3.3844
2.2430 17.4681 -0.9178 -184.0200 231.7660 -166.1330 0.0000 0.0000 0.0000 -3.4509 -11.5827 -21.4752 2.7332 10.2501 29.7906 0.0004 -15.8158 -11.1143 1.4334 -7.5699 -21.4150 0.0000 0.0000 0.0000 -7.0775 14.4172 -31.3839 -2.7914 -10.3494 30.1158 1.8150 -24.3487 -0.6948 -0.0889 -1.9233 5.2938 -5.7378 -2.5179 9.4528 3.5760 -3.8485 3.5702 7.3613 -2.0364 -0.9295 -13.1908 -1.1995 -7.2181 3.0349 -1.6039 41.3270 3.3317 -2.7941 16.1789 0.0000 0.0000 0.0000 -80.8301 -1.7212 47.7881 29.9872 -40.8824 -11.4013 -0.0000 -0.0000 4.8493 17.4624 17.4720 5.3955 -7.1250 0.0000 -0.0000 -10.1353 47.9784 -0.7520 0.0000 0.0000 0.0000 76.7627 -10.5375 33.2767 -47.9129 52.1183 -24.5170 0.0000 0.0000 19.4673 -36.5557 4.2593 -3.1521 7.1250 -0.0000 -0.0000 -7.4050 -24.6831 -3.6654
2.1527 17.4301 -1.0017 -183.7350 231.4000 -166.4000 0.0000 0.0000 0.0000 -3.1032 -11.8942 -21.6349 2.8189 10.3960 30.2689 0.0183 -15.8617 -11.3338 1.4599 -7.6364 -21.6152 0.0000 0.0000 0.0000 -6.8103 14.2554 -30.3246 -2.7258 -10.2373 29.7486 1.4751 -21.8321 -1.4388 -0.0007 -0.1763 0.4845 -5.7740 -2.3483 9.8395 3.4950 -3.6447 3.5797 7.3035 -1.9240 -1.1699 -13.3670 -1.2632 -7.1673 3.2467 -1.7358 41.4317 3.4426 -2.8495 16.2442 0.0000 -0.0000 0.0000 -80.6990 -1.5921 48.2298 30.0751 -40.9577 -11.4588 -0.0000 -0.0000 5.1514 16.4500 16.8351 4.8877 -7.1250 0.0000 -0.0000 -10.8936 47.1915 -0.5959 0.0000 -0.0000 0.0000 76.4658 -10.5698 34.1742 -48.7667 52.4858 -25.1925 0.0000 0.0000 20.0989 -37.0635 4.0580 -3.0595 7.1250 -0.0000 -0.0000 -7.8042 -24.8974 -3.8272
2.0599 17.3875 -1.0792 -183.5240 231.1580 -166.5780 0.0000 0.0000 0.0000 -2.7265 -12.1927 -21.7938 2.9242 10.5713 30.8474 0.0457 -15.8670 -11.6197 1.4221 -7.5413 -21.3293 0.0000 0.0000 0.0000 -6.4293 14.0098 -29.3974 -2.6678 -10.1368 29.4209 1.1873 -19.3133 -2.7802 -0.0563 1.5311 -4.2114 -5.6374 -2.1492 10.0612 3.3516 -3.3794 3.6061 7.0608 -1.7827 -1.3271 -13.6124 -1.2787 -6.9481 3.6557 -1.8737 41.3727 3.6504 -2.8843 16.1804 0.0000 0.0000 0.0000 -80.4791 -1.4633 48.7699 30.1793 -41.0466 -11.5272 -0.0000 -0.0000 5.3627 16.4097 16.4474 4.7665 -7.1250 0.0000 -0.0000 -10.8178 46.7937 -0.4844 0.0000 0.0000 0.0000 76.4471 -10.6410 34.7540 -49.5129 52.7971 -25.7857 0.0000 0.0000 21.0756 -37.5747 3.9540 -3.0369 7.1250 -0.0000 -0.0000 -8.1951 -24.9925 -4.0044
1.9646 17.3382 -1.1614 -183.4530 230.9700 -166.5570 0.0000 0.0000 0.0000 -2.2173 -12.3695 -22.1502 3.0490 10.7739 31.5211 0.0615 -15.9660 -11.8464 1.4177 -7.5302 -21.2960 0.0000 0.0000 0.0000 -5.9448 13.8405 -28.5662 -2.6092 -10.0338 29.0861 0.9616 -17.0747 -5.4201 -0.1013 2.0522 -5.6498 -5.5186 -1.9944 10.1240 3.2409 -3.1682 3.7200 6.8544 -1.6802 -1.2909 -13.6290 -1.2723 -6.9760 3.8580 -1.9047 41.3241 3.7411 -2.8635 16.1632 -0.0000 0.0000 0.0000 -80.2698 -1.4513 49.0736 30.2644 -41.1189 -11.5831 -0.0000 -0.0000 5.6272 16.7535 15.9735 4.7357 -7.1250 0.0000 -0.0000 -10.3658 46.3581 -0.3512 -0.0000 0.0000 0.0000 76.4643 -10.3800 35.5627 -50.1315 53.0484 -26.2792 0.0000 0.0000 22.0214 -38.0158 3.9268 -3.0643 7.1250 -0.0000 -0.0000 -8.5249 -24.9968 -4.1680
1.8724 17.2852 -1.2527 -183.3800 230.8030 -166.4370 0.0000 0.0000 0.0000 -1.6704 -12.3757 -22.7529 3.1859 10.9900 32.2463 0.0595 -16.1475 -11.9487 1.4766 -7.6781 -21.7406 0.0000 0.0000 0.0000 -5.3743 13.5051 -28.0100 -2.5466 -9.9221 28.7247 0.7399 -15.1510 -7.7577 -0.0534 1.4911 -4.1011 -5.4468 -1.8498 10.2612 3.0960 -2.9776 3.7449 6.6471 -1.5797 -1.3830 -13.3114 -1.2764 -7.1810 3.8149 -1.9207 41.4848 3.6694 -2.8291 16.2919 0.0000 -0.0000 0.0000 -79.8775 -1.3211 49.4250 30.4677 -41.2909 -11.7170 -0.0000 -0.0000 5.8925 17.0478 15.5518 4.6999 -7.1250 0.0000 -0.0000 -9.9804 45.9667 -0.2405 0.0000 -0.0000 0.0000 76.2989 -10.4103 36.6373 -51.3463 53.5243 -27.2530 0.0000 0.0000 22.5234 -38.2112 3.9217 -3.0820 7.1250 -0.0000 -0.0000 -8.6701 -24.9898 -4.2420
1.7785 17.2369 -1.3440 -183.3650 230.6150 -166.2750 0.0000 0.0000 0.0000 -1.0927 -12.4340 -23.3319 3.3312 11.2128 33.0011 0.0757 -16.1942 -12.1405 1.5650 -7.8942 -22.3931 0.0000 0.0000 0.0000 -4.6855 13.0274 -27.6846 -2.4929 -9.8249 28.4116 0.5480 -13.5978 -9.3747 -0.0211 0.9386 -2.5800 -5.2382 -1.6812 10.3414 2.8915 -2.7410 3.8226 6.2882 -1.4591 -1.4046 -13.0709 -1.3227 -7.3111 3.9796 -2.0643 41.5116 3.6829 -2.8244 16.3469 -0.0000 0.0000 0.0000 -79.3439 -1.3071 50.0005 30.7310 -41.5118 -11.8912 -0.0000 -0.0000 5.9586 17.8398 15.1107 4.7957 -7.1250 0.0000 -0.0000 -9.1385 45.6150 -0.1399 -0.0000 0.0000 0.0000 76.1536 -10.3835 37.7285 -52.5764 53.9832 -28.2451 0.0000 0.0000 22.8875 -38.2961 3.9226 -3.0920 7.1250 -0.0000 -0.0000 -8.7327 -24.9829 -4.2747
1.6874 17.1886 -1.4276 -183.3330 230.5690 -166.2200 0.0000 0.0000 0.0000 -0.6522 -12.3251 -23.7964 3.4779 11.4311 33.7481 0.1058 -16.0506 -12.3426 1.6814 -8.1683 -23.2264 0.0000 0.0000 0.0000 -4.0391 12.4917 -27.5455 -2.4602 -9.7652 28.2196 0.3515 -11.8144 -10.2568 -0.0422 1.3265 -3.6475 -4.9016 -1.4005 10.4262 2.5786 -2.3467 3.9515 5.7240 -1.2603 -1.4047 -12.4899 -1.3509 -7.0903 4.0471 -2.2536 41.1843 3.5751 -2.7785 16.1155 -0.0000 0.0000 0.0000 -78.6285 -1.3727 50.8402 31.0784 -41.8000 -12.1220 -0.0000 -0.0000 5.9753 18.7546 15.1432 5.0689 -7.1250 0.0000 -0.0000 -8.3049 45.7633 -0.1575 -0.0000 0.0000 0.0000 76.2707 -10.2605 38.4805 -53.7114 54.3869 -29.1655 0.0000 0.0000 23.3636 -38.0316 4.2110 -3.2871 7.1250 -0.0000 -0.0000 -8.5003 -24.6401 -4.2269
1.6078 17.1433 -1.5238 -183.2110 230.4180 -166.1240 0.0000 0.0000 0.0000 -0.1883 -12.1873 -24.5401 3.6324 11.6545 34.5205 0.0853 -16.1291 -12.1924 1.6760 -8.1559 -23.1887 0.0000 0.0000 0.0000 -3.3731 11.5834 -27.8674 -2.4553 -9.7562 28.1908 0.1944 -10.0242 -10.3928 -0.1066 2.1050 -5.7959 -4.8292 -1.2379 10.7603 2.4973 -2.1389 3.8889 5.5900 -1.1441 -1.6876 -12.1441 -1.2368 -6.7577 3.8898 -2.1079 40.8128 3.4568 -2.6593 15.8059 0.0000 0.0000 0.0000 -78.4093 -1.1434 51.3094 31.4485 -42.1030 -12.3694 -0.0000 -0.0000 6.2868 19.9566 15.1620 5.4252 -7.1250 0.0000 -0.0000 -7.1984 45.9362 -0.1672 0.0000 0.0000 0.0000 75.6713 -10.2736 39.7742 -55.0077 54.8258 -30.2223 0.0000 0.0000 23.5050 -37.9115 4.5415 -3.5288 7.1250 -0.0000 -0.0000 -8.3695 -24.2356 -4.2397
